<?xml version="1.0" encoding="UTF-8"?>
<svg id="_图层_1" data-name="图层 1" xmlns="http://www.w3.org/2000/svg" viewBox="0 0 552.71 552.71">
  <defs>
    <style>
      .cls-1 {
        fill: #1c6cb6;
      }

      .cls-2 {
        fill: #fff;
      }

      .cls-3 {
        fill: #2f74bb;
      }

      .cls-4 {
        fill: #0b3a63;
      }

      .cls-5 {
        fill: #82b44e;
      }
    </style>
  </defs>
  <g>
    <path class="cls-4" d="M276.35,0C123.97,0,0,123.97,0,276.35c0,17.53,1.66,34.67,4.8,51.31h57.54c-3.95-16.47-6.05-33.64-6.05-51.31,0-121.35,98.73-220.08,220.08-220.08,121.35,0,220.08,98.73,220.08,220.08,0,17.66-2.11,34.84-6.05,51.31h57.54c3.13-16.63,4.8-33.78,4.8-51.31C552.71,123.97,428.74,0,276.35,0Z"/>
    <path class="cls-1" d="M276.35,496.43c-99.82,0-184.32-66.81-211.16-158.05H7.02c28.23,122.62,138.27,214.33,269.33,214.33,131.06,0,241.11-91.71,269.33-214.33h-58.17c-26.85,91.24-111.34,158.05-211.16,158.05Z"/>
  </g>
  <g>
    <path class="cls-2" d="M97.1,82.49l1.73,1.68,7.29,33.94-2.07-2.02,11.84-12.14-.64,4.8-5.89-9.44,3.01-3.08,7.28,8.02-18.56,19.03-1.74-1.7-7.04-34.16,2.05,2-11,11.28.29-4.41,5.53,8.84-3.18,2.88-6.7-7.27,17.81-18.26Z"/>
    <path class="cls-2" d="M218.64,18.15l.65,2.32-10.63,33.05-.79-2.78,16.32-4.6-2.96,3.84-.39-11.12,4.15-1.17,2.3,10.59-25.58,7.21-.66-2.34,10.96-33.12.78,2.76-15.16,4.28,2.46-3.68.37,10.42-4.19.91-2.18-9.65,24.55-6.91Z"/>
    <path class="cls-2" d="M335.53,33.03c-1.98,7.63.81,12.82,6.43,14.27,3.35.87,6.5,0,9.08-2.15l1.52,1.85c-3.43,4.67-8.43,6.23-14.41,4.69-8.65-2.24-13.45-9.68-10.82-19.86,2.63-10.15,11.49-14.23,20-12.02,6.17,1.6,9.87,6.64,9.24,11.68-1,1.8-2.37,2.41-4.3,1.91-2.3-.6-3.39-2.38-2.97-5.52l.23-5.32,3.13,3.46c-1.79-1.56-3.57-2.49-5.47-2.98-4.55-1.18-9.5,1.65-11.66,9.99Z"/>
    <path class="cls-2" d="M474.63,97.85l-1.7,1.71-33.98,7.03,2.04-2.05,12.04,11.93-4.8-.68,9.49-5.82,3.05,3.03-8.07,7.22-18.87-18.7,1.71-1.73,34.2-6.78-2.02,2.04-11.19-11.08,4.41.33-8.88,5.46-2.86-3.2,7.31-6.64,18.11,17.94Z"/>
  </g>
  <g>
    <path class="cls-2" d="M61.04,424.77c-.54-.39-1-.79-1.37-1.2s-.57-.83-.6-1.26c.02-.43.09-.92.22-1.48.13-.55.28-1.08.48-1.58.19-.49.44-.92.73-1.27s.65-.51,1.08-.49c.45-.18.74-.31.86-.38.12-.08.34-.08.67-.02.55.06,1.42.45,2.6,1.16,1.19.71,2.79,1.57,4.81,2.55,1-.8,2.01-1.62,3.03-2.46,1.02-.84,2-1.66,2.95-2.46-.95-.56-1.82-1.06-2.6-1.5-.79-.44-1.27-.98-1.46-1.6-.08-.21-.04-.61.11-1.19.15-.58.37-1.21.65-1.88.28-.68.61-1.32.99-1.92.38-.6.76-1.01,1.14-1.22.27.11.58.27.93.48s.74.46,1.16.72c.41.26.83.54,1.24.82.41.28.79.56,1.14.83l2.23,1.77c1.23-1.08,2.3-2.04,3.2-2.87.9-.84,1.57-1.47,2-1.9.21-.25.28-.59.23-1-.06-.41-.03-.73.07-.94.34-.14.79-.25,1.34-.33.55-.08,1.11-.12,1.67-.14.56-.02,1.07.04,1.52.15.46.11.78.3.98.55.3.49.6,1.05.9,1.68.3.63.54,1.27.74,1.91.19.64.3,1.27.3,1.87,0,.61-.1,1.14-.33,1.6-.14.34-.36.63-.65.86-.29.24-.6.42-.92.57-.32.14-.64.26-.97.36-.33.1-.58.22-.74.35-.6.39-1.19.79-1.77,1.21-.58.41-1.17.84-1.78,1.28.73.74,1.32,1.42,1.77,2.04.45.62.69,1.09.73,1.43-.04.12-.13.24-.27.35-.14.11-.24.24-.31.38-.01.1-.12.24-.31.42-.2.18-.34.3-.42.37-.24.1-.45.25-.64.44s-.35.35-.49.46c-.08.02-.23.03-.44.05-.22.01-.37.1-.47.27-.07.14-.27.3-.62.46-.35.16-.61.2-.77.1-.74-.87-1.7-1.76-2.89-2.67-.78.62-1.54,1.25-2.3,1.87-.75.62-1.51,1.26-2.26,1.91.85.37,1.6.69,2.27.95.67.27,1.33.52,1.99.77-.15.21-.35.36-.6.45-.25.08-.33.16-.23.22.07.03.05.08-.06.14s-.14.13-.09.18c.02.03-.04.09-.17.17-.14.09-.29.19-.47.31-.18.12-.37.22-.57.32-.2.09-.35.16-.46.2-.1-.01-.11,0-.02.02s.18.06.27.13c.07.08,0,.2-.19.36l-.29.24c-.23.05-.47.17-.72.37-.25.2-.59.27-1.01.19-.9-.1-1.74-.22-2.52-.38-.78-.15-1.54-.29-2.29-.43l-.46.37c-1.1.79-2.21,1.69-3.34,2.71-1.13,1.01-2.22,1.99-3.29,2.94-1.07.95-2.05,1.79-2.94,2.52-.89.74-1.61,1.23-2.14,1.47-.53.2-1.16.17-1.91-.08-.74-.25-1.46-.6-2.14-1.06-.68-.46-1.29-.96-1.83-1.51-.53-.55-.85-1.04-.96-1.46-.01-.36-.05-.78-.1-1.28-.06-.5-.1-1.02-.11-1.55-.02-.53-.03-1.06-.03-1.58s.02-.97.09-1.34c.07-.14.24-.28.52-.42.28-.13.41-.24.4-.32.01-.1.1-.21.26-.31.16-.11.26-.2.3-.27s.12-.19.25-.37c.13-.17.28-.3.44-.39.1.24.26.53.47.89.21.35.42.7.63,1.04.2.34.4.65.58.93.18.29.32.49.41.6.73-.45,1.6-1.03,2.59-1.72.99-.7,2.07-1.48,3.26-2.33-.66-.25-1.25-.48-1.78-.69-.53-.21-.89-.38-1.08-.5ZM87.9,423.32c.31-.25.52-.51.66-.8s.33-.49.6-.62c.1,0,.34.04.73.1.39.05.61.13.68.21.36.4.74.89,1.12,1.49s.72,1.2,1,1.8.47,1.15.6,1.65c.12.49.1.83-.08,1.01-.31.3-.57.51-.78.66-.21.14-.43.3-.68.47-.25.17-.57.42-.96.73-.39.31-.92.78-1.6,1.42-.14.11-.36.31-.66.59-.3.28-.62.61-.96.98l1.42,1.26c.89-.71,1.77-1.42,2.63-2.14.86-.71,1.74-1.43,2.63-2.14,1.17-.93,2.36-1.88,3.56-2.85,1.21-.97,2.47-2.09,3.77-3.36.23-.28.32-.47.28-.6-.05-.12-.1-.27-.16-.45-.02-.03-.03-.11-.03-.25,0-.14,0-.29.01-.46l.02-.49c0-.17.02-.28.06-.36.19-.1.54-.21,1.06-.3.52-.09,1.07-.13,1.65-.12.58.01,1.15.1,1.72.27s.99.43,1.28.79c.3.49.6,1.07.89,1.75.29.68.53,1.35.73,2.02.19.66.31,1.31.35,1.94.04.63-.03,1.16-.23,1.59-.16.31-.39.57-.67.78s-.59.38-.91.52c-.32.14-.64.27-.95.39-.32.12-.56.24-.73.38-1.17.76-2.32,1.53-3.43,2.34-1.12.8-2.24,1.6-3.36,2.42l-5.06,3.85c.21.38.37.68.47.92.09.34.02.82-.2,1.46.51-.27,1.11-.63,1.81-1.07.69-.44,1.22-.76,1.57-.95,1.56-1.07,2.74-1.96,3.53-2.69.79-.72,1.27-1.15,1.43-1.28.17-.14.48-.15.95-.05.47.11.76.22.87.36.29.31.57.75.84,1.31.27.56.5,1.13.68,1.71.19.58.34,1.13.44,1.66.1.53.14.92.12,1.17.02.25-.14.5-.48.73-.34.23-.78.48-1.3.77-.52.28-1.1.59-1.73.91-.63.32-1.24.69-1.81,1.11-1.15.73-2.21,1.45-3.2,2.15-.99.7-1.85,1.16-2.58,1.38-.5.17-1.07.08-1.7-.28-.63-.36-1.22-.81-1.75-1.33-.54-.53-.97-1.06-1.31-1.59-.33-.53-.44-.89-.32-1.08.03-.25.08-.48.17-.68.09-.21.16-.41.24-.6-.09-.16-.17-.32-.27-.47-.1-.15-.22-.32-.38-.52-2.05,1.6-4.03,3.16-5.95,4.69-1.92,1.53-3.54,2.83-4.88,3.9.49.61.86,1.22,1.13,1.84.06.18.06.37.03.55-.03.19-.08.39-.13.61.52-.32,1.03-.65,1.53-.99.51-.33,1-.68,1.5-1.03,1.5-.97,2.59-1.85,3.25-2.64.67-.79,1.09-1.25,1.26-1.38.08-.06.22-.09.42-.06s.43.06.69.13c.26.06.49.14.7.23.21.09.34.17.41.25.32.34.61.81.87,1.42.26.61.48,1.23.67,1.86.18.63.33,1.22.43,1.77.1.55.17.96.19,1.22.02.26-.13.52-.47.79-.33.27-.78.55-1.33.86-.55.3-1.15.63-1.78.98-.63.35-1.23.72-1.78,1.11-.55.35-1.13.74-1.75,1.19-.62.45-1.23.9-1.82,1.36-.59.45-1.16.84-1.69,1.18-.53.33-.99.54-1.38.63-.47.15-1.03.06-1.66-.28-.63-.33-1.23-.75-1.78-1.24-.55-.49-1-.98-1.35-1.48-.35-.49-.48-.82-.38-.99.12-.65.22-1.22.3-1.71.08-.5.14-.95.19-1.34-.13-.17-.26-.34-.38-.52-.12-.18-.25-.35-.38-.52-.73-.97-1.49-1.93-2.28-2.9-.79-.96-1.5-1.69-2.13-2.19-.17-.09-.37-.24-.62-.43-.25-.19-.5-.36-.76-.52-.26-.16-.51-.29-.73-.4-.23-.11-.38-.16-.46-.15-.08.02-.32-.12-.71-.42-.4-.3-.85-.66-1.34-1.08-.5-.42-.97-.87-1.41-1.33-.44-.47-.71-.87-.8-1.21-.05-.51.13-1.12.52-1.82s.84-1.36,1.32-1.98c.49-.62.95-1.13,1.4-1.53s.73-.57.85-.47c.02.08.08.19.19.32.7-.78,1.35-1.48,1.96-2.08.61-.6,1.41-1.39,2.41-2.37.28-.27.49-.57.61-.9.13-.33.31-.54.55-.64.1.01.38.07.85.17.47.1.8.28,1,.53.41.45.8.97,1.18,1.55.38.59.69,1.17.95,1.74.25.57.42,1.08.5,1.52.08.44.03.75-.14.93-.28.27-.53.48-.73.62-.21.14-.42.3-.64.48-.22.18-.52.42-.9.72-.37.3-.86.76-1.46,1.38-.14.16-.37.4-.69.72-.32.32-.64.66-.99,1.03l1.62,1.51c1.74-1.3,3.5-2.64,5.29-4.03,1.79-1.38,3.6-2.81,5.43-4.27-.3-.26-.6-.49-.91-.67-.31-.19-.53-.27-.66-.26-.08.02-.31-.11-.7-.36-.39-.26-.81-.58-1.26-.97-.45-.39-.87-.8-1.25-1.22-.38-.42-.61-.79-.68-1.1,0-.51.19-1.08.55-1.71s.79-1.22,1.28-1.77c.49-.55.95-1,1.38-1.35.43-.34.69-.49.79-.43l.02.12c.75-.83,1.5-1.62,2.24-2.37.74-.76,1.53-1.52,2.38-2.28Z"/>
    <path class="cls-2" d="M180.54,519.66c-.16.14-.46.26-.91.37-.45.11-.92.2-1.41.26-.49.06-.95.07-1.38.02-.43-.05-.69-.18-.77-.4-.11-.22-.23-.52-.35-.9-.12-.38-.28-.81-.5-1.29-.2-.41-.31-.98-.32-1.74-.01-.75.05-1.52.18-2.3s.29-1.51.5-2.17c.2-.66.42-1.11.64-1.33.33.03.76.16,1.31.38.55.22.9.36,1.07.41,1.1-.38,2.53-.88,4.3-1.49,1.76-.62,4.11-1.56,7.05-2.83.47-1.53.92-3,1.36-4.41.43-1.41.82-2.72,1.16-3.92.34-1.2.63-2.25.88-3.14.24-.89.41-1.6.51-2.14.05-.36.02-.59-.08-.7-.1-.11-.22-.22-.36-.35-.06-.06-.11-.31-.17-.76-.06-.45-.09-.73-.09-.84.1-.19.35-.46.74-.79s.83-.65,1.3-.95.96-.51,1.46-.67c.5-.15.93-.15,1.29.01.45.22.92.51,1.4.86s.94.74,1.38,1.19c.43.44.82.92,1.16,1.42.34.51.58,1.05.73,1.62.15.46.04.97-.31,1.53-.36.56-.62,1.05-.8,1.48-.17.39-.49,1.23-.95,2.52-.47,1.29-1,2.79-1.61,4.5-.61,1.71-1.25,3.54-1.91,5.5-.67,1.95-1.31,3.8-1.91,5.55-.6,1.75-1.13,3.31-1.59,4.68-.45,1.37-.77,2.31-.93,2.81-.34.9-.67,1.91-1,3.01-.33,1.11-.65,2.18-.95,3.2-.3,1.03-.58,1.95-.83,2.76-.25.81-.49,1.38-.7,1.68-.26.44-.69.74-1.29.92-.6.17-1.23.27-1.89.27-.66,0-1.27-.06-1.85-.19-.57-.13-.95-.32-1.13-.57-.24-.3-.44-.7-.62-1.19s-.31-.98-.41-1.46c-.1-.48-.16-.92-.19-1.3s-.02-.62.02-.73c.14.01.36-.04.64-.15.28-.11.42-.21.4-.29.61-1.6,1.31-3.53,2.1-5.8.79-2.27,1.61-4.67,2.45-7.2-1.19.99-2.37,1.92-3.52,2.8-1.16.87-2.25,1.62-3.28,2.25ZM187.44,494.22c.73.17,1.28.58,1.65,1.22.36.65.62,1.38.76,2.19.14.82.18,1.61.11,2.37-.07.76-.17,1.37-.32,1.8-.19.35-.51.62-.97.8-.46.19-1.03.37-1.73.55-.46.14-1.01.25-1.65.32-.64.07-1.19.16-1.64.27-.08.01-.22-.04-.43-.14s-.43-.23-.67-.36c-.24-.13-.47-.27-.68-.4-.22-.13-.36-.21-.43-.23.16-.25.39-.55.69-.89.3-.35.47-.56.49-.63-.07-.36-.17-.79-.3-1.31-.13-.51-.24-1.04-.34-1.6-.09-.56-.15-1.09-.17-1.6s.07-.94.26-1.29c.3-.46.61-.81.94-1.04.32-.23.69-.37,1.12-.41s.91-.03,1.45.03c.54.07,1.16.18,1.86.34ZM192.2,528.27c-.01-.19.04-.42.14-.68.11-.27.24-.53.4-.79s.33-.49.51-.68c.17-.19.32-.3.45-.33.34,0,.85.05,1.53.14.68.09,1.44.23,2.29.4.85.17,1.73.35,2.66.55.93.2,1.81.4,2.64.6.18-.54.34-1.07.47-1.59s.33-1.19.59-2.03c.26-.83.6-1.92,1.03-3.26.43-1.34,1.02-3.1,1.79-5.28-.74-.14-1.41-.27-2.01-.39-.6-.13-.93-.18-1.01-.17-1.57-.11-2.99-.47-4.25-1.08-1.26-.6-2.06-1.36-2.4-2.26-.05-.43,0-1.02.14-1.78s.34-1.49.59-2.2c.25-.7.57-1.27.95-1.68.38-.42.8-.51,1.25-.29.28.17.76.46,1.45.88.69.42,1.43.7,2.25.86,1.05.24,2.02.46,2.93.67.9.21,1.76.41,2.56.6.99-2.86,1.77-5.23,2.34-7.12.57-1.89.92-3.3,1.04-4.24-.05-.09-.18-.26-.4-.5-.22-.24-.35-.41-.4-.5-.01-.08-.13-.23-.36-.46-.11-.11-.23-.21-.36-.29.36-.4.8-.82,1.32-1.25.52-.43.96-.73,1.32-.91.46-.14,1.02-.21,1.67-.2.65.01,1.16.09,1.52.25.76.29,1.47.73,2.12,1.33.65.59,1.29,1.16,1.93,1.71.24.19.39.46.46.8.07.34.11.71.11,1.11s-.02.77-.07,1.13c-.05.36-.09.66-.13.91-.11.45-.26.8-.43,1.04-.17.24-.37.51-.6.79-.22.28-.47.64-.72,1.08-.26.44-.53,1.08-.81,1.93l-1.95,5.37c1.42.36,2.94.79,4.57,1.3,1.63.51,3.28,1.14,4.93,1.92.33.14.5.29.53.43s0,.25-.06.35c-.02.07-.18.12-.47.15s-.42.09-.37.19c.09.18.15.46.17.84-.09.05-.17.1-.25.17-.08.07-.21.09-.39.07-.1-.03-.17-.01-.22.07-.05.08-.09.13-.13.15-.02.07-.04.23-.05.49s.02.44.1.54c.01.08-.1.3-.33.65-.23.36-.32.58-.28.67-.08.12-.11.24-.08.34.02.1.03.22.02.37-.03.33-.09.55-.17.68-.13.15-.27.21-.43.19-.16-.02-.28.08-.35.28-.77-.29-1.5-.57-2.19-.84-.7-.27-1.41-.54-2.13-.79-.72-.26-1.47-.5-2.24-.72-.77-.22-1.6-.46-2.49-.71-.88,2.52-1.65,4.79-2.3,6.83s-1.25,3.84-1.78,5.43c1.76.47,3.09.83,4,1.08.91.25,1.56.47,1.94.67.43.29.76.64,1,1.04.24.4.43.81.55,1.22.12.42.21.82.27,1.22.06.4.13.72.24.98.11.45.1.9-.02,1.34s-.35.84-.65,1.19-.66.63-1.06.83c-.4.21-.81.31-1.23.32-.15-.01-.59-.16-1.32-.44s-1.88-.79-3.43-1.53c-.95-.43-1.92-.82-2.92-1.2-1-.37-1.99-.68-2.98-.93-.99-.25-1.93-.45-2.85-.58s-1.73-.19-2.45-.17c-.38.02-.84,0-1.38-.09-.54-.08-1.06-.17-1.57-.27-.51-.1-.97-.2-1.36-.31-.4-.11-.64-.21-.73-.27-.26-.12-.51-.4-.77-.82-.25-.42-.48-.89-.68-1.41s-.37-1.05-.51-1.6-.23-1.04-.27-1.47Z"/>
    <path class="cls-2" d="M327.28,508.42c-.14-.36-.29-.76-.45-1.17-.16-.42-.3-.72-.43-.91-1.82,1.16-3.26,1.94-4.32,2.35-.44-.09-.82-.26-1.15-.5-.33-.24-.68-.32-1.07-.25-.09-.05-.29-.14-.61-.3-.32-.15-.49-.25-.51-.32-.19-.02-.53-.08-1.02-.18s-.88-.26-1.16-.47c.16-.08.39-.24.7-.48.3-.24.63-.49.97-.78.34-.28.7-.59,1.07-.92.37-.33.7-.63.99-.9,1.74-1.68,3.17-3.09,4.28-4.23,1.12-1.14,1.85-2.01,2.19-2.63.27-.48.46-1,.58-1.55.12-.55.31-.9.56-1.05.13-.08.36-.15.71-.23.35-.08.72-.14,1.12-.18.4-.04.8-.05,1.21-.04.41.01.76.07,1.05.17,1.14.75,1.99,1.61,2.55,2.6.56.99.86,1.68.9,2.07-.07.39-.33.82-.77,1.3s-.99,1.01-1.67,1.62l-1.21,1.01c.25.11.5.25.74.43.23.17.47.36.71.55.15.14.29.35.4.63s.21.59.29.92.14.68.19,1.06c.05.37.09.68.13.93.97-.35,1.79-.63,2.46-.82.67-.19,1.16-.24,1.48-.15.3.14.5.39.6.74.1.36.16.67.16.93-.02.19,0,.32.08.37.07.05.15.1.24.15.09.05.17.11.25.18.08.07.12.18.12.33-.11.14-.15.34-.13.59.02.25,0,.52-.02.79s-.1.54-.19.8c-.09.27-.3.47-.63.6-.47.17-.96.37-1.47.59s-1.03.46-1.54.72c.16.81.34,1.59.53,2.35.2.76.42,1.62.66,2.59.65-.71,1.25-1.41,1.81-2.1.56-.7,1.02-1.32,1.38-1.87.09.05.12.02.09-.08.03.1.1.22.21.36s.2.19.27.17c.06-.05.12.11.2.5.07.39.13.71.16.95,0,.15.04.23.1.25.06.02.13.02.2,0,.07-.02.14-.03.21-.03.07,0,.11.01.12.05.04.14.07.33.09.59s-.02.54-.11.86l-3.38,5.25c.41,1.55.84,3.09,1.29,4.6.45,1.52.87,2.93,1.25,4.25s.69,2.48.95,3.5c.26,1.02.37,1.79.33,2.32,0,.37-.19.78-.54,1.21-.36.44-.79.83-1.3,1.18-.51.35-1.03.63-1.56.84s-.98.27-1.33.19c-.11,0-.33-.12-.65-.34s-.68-.48-1.06-.78c-.38-.3-.74-.59-1.06-.89-.32-.3-.52-.51-.6-.63.19-.24.37-.46.54-.65.17-.19.29-.34.37-.44-.15-.92-.36-1.94-.63-3.07-.27-1.12-.61-2.47-1.01-4.01-1.01,1.25-1.95,2.24-2.81,2.97-.86.73-1.63,1.04-2.29.93-.11.14-.5.05-1.19-.27-.68-.32-1.39-.77-2.1-1.34-.72-.57-1.31-1.22-1.78-1.96-.47-.73-.55-1.46-.24-2.18.83-1.09,1.68-2.57,2.53-4.45.85-1.87,1.57-3.77,2.17-5.68-1.16.74-2.19,1.37-3.09,1.89-.91.52-1.61.76-2.1.71-.26,0-.67-.19-1.24-.56-.57-.37-1.13-.81-1.69-1.32-.55-.51-1.03-1.02-1.44-1.53-.41-.51-.55-.9-.44-1.15.41-.38.98-.81,1.71-1.3.73-.49,1.54-1,2.45-1.53.9-.54,1.87-1.08,2.92-1.64,1.04-.56,2.1-1.1,3.17-1.63l-.41-1.44ZM340.41,506.76c-1.07-2.84-1.97-5.06-2.69-6.67-.72-1.61-1.27-2.82-1.65-3.63-.07-.39.11-.76.56-1.14.45-.37.86-.61,1.24-.71.57-.2,1.24-.31,1.99-.32.75-.01,1.41.05,1.97.18l1.17-.95c.21-.17.6-.38,1.18-.64.57-.26,1.22-.54,1.95-.84.73-.3,1.5-.62,2.3-.97.81-.35,1.57-.68,2.3-1,.16-.08.34-.23.54-.43.2-.21.4-.43.59-.67.19-.24.36-.46.53-.68s.29-.33.4-.36c.32-.17.64-.25.96-.25.32,0,.6-.01.85-.05.11,0,.45.08,1.03.21.57.13,1.19.33,1.84.61.65.28,1.27.62,1.85,1.03.58.41.95.89,1.1,1.43.05.17.07.41.06.7,0,.3-.02.71-.04,1.23-.02.52,0,1.21.03,2.05s.13,1.9.28,3.2c.1,1.38.18,2.56.24,3.54.06.98.03,1.79-.09,2.41-.08.24-.31.52-.7.84-.39.32-.84.62-1.35.92-.51.29-1.02.52-1.53.69-.51.16-.9.21-1.18.14-.09-.05-.22-.14-.41-.27s-.4-.29-.64-.48c-.64.11-1.25.25-1.85.42s-1.07.38-1.4.63c-.81.42-1.55.79-2.23,1.14-.68.34-1.27.62-1.76.84-.09.32-.17.55-.25.68-.12.22-.39.42-.8.59-.41.17-.87.31-1.38.4s-1.01.14-1.51.16c-.5.02-.86,0-1.1-.05-.45-.16-.85-.6-1.18-1.3-.33-.7-.74-1.57-1.23-2.62ZM342.27,513.06c.16-.08.48-.13.96-.14.48,0,.92-.09,1.32-.24.24-.07.63-.22,1.18-.45.54-.23,1.16-.48,1.84-.75.68-.27,1.37-.54,2.07-.82.7-.27,1.31-.52,1.84-.75.53-.22,1.37-.54,2.53-.95,1.16-.41,2.37-.82,3.64-1.24,1.27-.42,2.45-.79,3.54-1.1,1.09-.31,1.86-.49,2.29-.54.13.19.17.47.13.85-.04.38.02.59.18.62.1.08.21.32.32.71.11.39.28.65.5.77.09.19.18.54.27,1.03.09.49.21.89.36,1.17-.21.06-.56.17-1.07.33-.51.16-1.1.35-1.78.57-.68.21-1.42.46-2.24.73-.81.27-1.62.54-2.43.81.2.31.36.75.49,1.3.12.56.27,1.2.44,1.93,1.51-.55,2.84-.97,3.99-1.28s1.86-.4,2.12-.25c.15.25.35.52.62.79.26.28.37.53.33.77-.09.32-.08.63.05.93.12.3.17.54.16.73-.09.21-.11.51-.07.91.04.4-.04.71-.23.95-2.09.6-3.94,1.19-5.55,1.76l.84,2.93c1.95-.67,3.67-1.26,5.16-1.76,1.49-.5,2.46-.78,2.93-.84.33-.02.71.06,1.16.25.44.19.86.4,1.27.64.4.24.76.49,1.08.74.32.26.55.45.69.55.18.24.29.57.34.98.05.41.02.85-.07,1.3-.09.45-.23.87-.42,1.26-.19.39-.39.63-.62.73-.16.08-.45.16-.88.22-.43.07-.9.14-1.41.21-.51.07-1.02.14-1.52.21-.5.07-.88.14-1.16.22-.46.09-1.05.24-1.79.43-.74.19-1.54.41-2.39.66-.86.24-1.72.5-2.58.77-.87.27-1.64.52-2.31.75-.44.16-1,.38-1.7.65-.7.27-1.42.57-2.16.87-.75.3-1.45.62-2.12.94-.67.32-1.19.59-1.57.81-.46.21-1,.45-1.62.74-.62.29-1.19.49-1.72.6-.37.14-.76.06-1.18-.24-.42-.3-.83-.7-1.23-1.17s-.74-.97-1.04-1.48c-.29-.51-.48-.9-.56-1.17-.04-.25-.03-.57,0-.95s.1-.62.18-.72c.25-.15.63-.25,1.14-.3.5-.05,1.18-.27,2.03-.66.3-.12.78-.32,1.44-.58.66-.27,1.39-.56,2.19-.88.8-.32,1.58-.63,2.35-.92.77-.29,1.38-.52,1.85-.7l.1-.03-.75-2.62c-1.45.64-2.57,1.13-3.38,1.47-.81.35-1.52.47-2.14.39-.13-.07-.35-.26-.66-.56-.31-.3-.63-.72-.97-1.25-.31-.58-.58-1.17-.79-1.77-.21-.6-.26-1.02-.13-1.24.35-.21.83-.38,1.44-.5.61-.12,1.18-.29,1.71-.52l3.32-1.4c-.14-.48-.27-.9-.39-1.25-.12-.35-.2-.62-.25-.79-.04-.14-.1-.31-.17-.51-.08-.2-.16-.4-.25-.6-.95.42-1.84.83-2.68,1.22-.83.39-1.55.74-2.17,1.06-.46.21-1.03.35-1.71.44-.68.08-1.16-.06-1.45-.42-.21-.35-.4-.82-.57-1.42-.17-.6-.31-1.19-.42-1.77-.11-.58-.17-1.09-.19-1.53s.03-.68.13-.71ZM344,497.4c.37.78.74,1.69,1.12,2.73.37,1.04.85,2.27,1.45,3.69.59-.24,1.23-.52,1.9-.82.67-.3,1.32-.6,1.94-.89.62-.29,1.21-.53,1.76-.73.55-.2,1.02-.33,1.41-.41l.24.04-.11-.97c-.09-.97-.21-1.91-.34-2.82-.13-.91-.27-1.47-.4-1.69-.08-.01-.34.05-.78.2-.44.14-.93.33-1.48.56s-1.08.47-1.6.71c-.52.24-.89.43-1.11.57-.22.14-.48.28-.77.42-.29.14-.58.25-.85.33s-.53.13-.77.14-.39-.05-.47-.17c-.45-.39-.83-.69-1.15-.89Z"/>
    <path class="cls-2" d="M472.53,441.55c-1.66.04-3.24-.02-4.72-.2s-2.65-.39-3.5-.65c-.29.41-.58.79-.85,1.14-.27.35-.53.73-.78,1.13l5.29,4.65c.85.76,1.59,1.44,2.24,2.03.64.59,1.26,1.17,1.84,1.75.13-.26.34-.8.62-1.61.28-.81.58-1.68.89-2.63s.61-1.88.91-2.79c.3-.91.52-1.58.66-2.03.1.04.22.14.33.31.12.17.25.36.39.57.14.22.29.4.42.53.14.14.27.22.4.23.1,0,.33.1.69.34s.7.44,1.02.61c.07.2.1.62.09,1.26,0,.65-.04,1.42-.1,2.32s-.13,1.9-.21,2.99c-.08,1.09-.19,2.22-.31,3.36-.06.51-.09.96-.11,1.34-.02.38-.04.76-.07,1.12-.03.37-.09.73-.17,1.08-.08.35-.21.73-.37,1.15-.06.18-.2.45-.4.81-.21.36-.44.73-.68,1.1s-.5.72-.76,1.03c-.26.32-.5.48-.7.5-.15.01-.39.02-.72.02-.33,0-.67,0-1.04,0-.37,0-.71-.03-1.03-.06s-.55-.11-.68-.22c-1.02-.17-1.86-.4-2.51-.71-.65-.31-.95-.7-.92-1.19.04-.15.04-.38.02-.68-.03-.3-.11-.65-.24-1.04s-.34-.82-.6-1.28c-.27-.46-.63-.9-1.1-1.34-.17-.24-.51-.58-1-1.01s-1.19-1.08-2.1-1.94l-4.58-3.85c-.27.43-.49.79-.66,1.08s-.29.53-.35.71c-.14.39-.36.85-.66,1.36-.3.52-.6,1.03-.91,1.54s-.59.94-.85,1.3c-.26.36-.42.59-.49.67-.23.22-.58.37-1.04.45-.46.08-.97.11-1.52.11-.56,0-1.1-.03-1.64-.08-.54-.05-1.01-.11-1.42-.18-.18,0-.37-.11-.58-.31-.21-.2-.38-.41-.53-.65-.15-.24-.27-.47-.38-.71s-.16-.41-.14-.54c.06-.18.27-.55.62-1.11.36-.56.81-1.26,1.35-2.1.55-.84,1.16-1.77,1.84-2.77.68-1.01,1.41-2.05,2.17-3.13-1.72-1.44-3.29-2.75-4.72-3.93-1.43-1.18-2.78-2.28-4.06-3.31-.48-.31-.95-.64-1.39-1s-.84-.63-1.19-.82c-.32-.17-.66-.3-1.02-.37-.36-.07-.71-.13-1.04-.17-.33-.05-.62-.11-.87-.21-.25-.09-.4-.24-.47-.43-.02-.25-.05-.56-.08-.94s-.05-.76-.04-1.15c0-.39.04-.75.1-1.07.06-.32.16-.56.3-.73.58-.63,1.32-1.25,2.22-1.86.91-.61,1.95-1.2,3.14-1.79.36-.16.82-.2,1.35-.12.54.08,1,.31,1.38.68.34.38.73.89,1.18,1.55.45.66,1.31,1.52,2.59,2.6.33.27.68.58,1.04.91.37.33.79.7,1.25,1.09.21-.8.42-1.63.64-2.5.21-.87.42-1.71.61-2.55.19-.84.34-1.66.43-2.46.09-.8.12-1.57.09-2.3,0-.89-.09-1.6-.28-2.15-.19-.55-.37-.98-.56-1.28s-.36-.53-.5-.7c-.14-.17-.19-.33-.16-.48.06-.13.17-.39.31-.78.14-.39.29-.78.45-1.16.16-.38.32-.73.5-1.04.17-.32.31-.51.4-.57.41-.21.88-.42,1.4-.63.52-.21,1.04-.4,1.56-.57.51-.17.99-.31,1.42-.41s.75-.19.94-.25c.8-.12,1.44-.06,1.93.19.49.25.84.6,1.06,1.06.22.46.34.97.36,1.52s-.02,1.09-.13,1.6c-.22,1.2-.58,2.6-1.08,4.18-.49,1.58-1.08,3.39-1.76,5.42-.26.81-.57,1.65-.94,2.53-.36.88-.74,1.71-1.13,2.5-.39.79-.74,1.5-1.05,2.12-.31.62-.53,1.09-.66,1.4l-.31.37,1.47,1.23c.74-1.05,1.4-1.97,1.98-2.77.58-.79.98-1.39,1.23-1.79,1.31-1.78,2.55-3.48,3.73-5.1,1.17-1.61,2.22-3.06,3.15-4.33.93-1.27,1.71-2.31,2.34-3.12.64-.81,1.07-1.33,1.31-1.55.9-.73,1.86-1.17,2.88-1.31,1.02-.14,1.82-.22,2.4-.24.48-.02.89.11,1.25.38s.64.61.86,1c.22.4.35.84.38,1.33s-.04.94-.2,1.36c-.05.06-.13.21-.25.46s-.31.56-.58.94c-.27.38-.62.82-1.06,1.34-.44.52-.99,1.07-1.68,1.66-.23.22-.57.58-1,1.08-.44.49-.95,1.09-1.53,1.78-.59.7-1.22,1.49-1.92,2.36-.7.88-1.42,1.8-2.17,2.75,2.26-.19,4.62-.56,7.09-1.09,2.47-.53,5.07-1.18,7.81-1.95,1.09-.3,2.02-.59,2.8-.89.78-.29,1.47-.56,2.07-.81.6-.24,1.15-.44,1.65-.6.5-.16,1.03-.26,1.58-.31.08.3.09.6.04.9-.05.31-.11.6-.19.89s-.14.53-.2.74c-.06.21-.05.35.04.41-.02.08-.04.21-.06.4s-.03.4-.04.63,0,.44.02.64.04.33.07.41c.05,0,.05.14,0,.45s-.09.65-.14,1.04c-.04.38-.08.73-.12,1.05-.04.32.02.47.17.46-.05.33-.14.78-.28,1.33-.14.55-.49,1.02-1.04,1.39-.94.46-2.13.81-3.55,1.03-1.42.22-2.94.38-4.54.47-1.61.09-3.23.14-4.86.14-1.63,0-3.14,0-4.53,0Z"/>
  </g>
  <path class="cls-5" d="M184.99,110.76v231.31c-87.6,4.15-92.2-58.15-92.2-58.15l-21.52,6.93c19.24,91.54,140.16,73.4,140.16,73.4v-228.6c0-45.1,51.32-45.1,51.32-45.1-55.98,6.22-77.75,20.22-77.75,20.22Z"/>
  <path class="cls-5" d="M178.77,226.16c-2.55-46.58-56.04-46.58-56.04-46.58,9.14,48.93,56.04,46.58,56.04,46.58Z"/>
  <path class="cls-5" d="M198.07,269.18c-50.94-12.87-68.87,44.64-68.87,44.64,55.68,6.58,68.87-44.64,68.87-44.64Z"/>
  <path class="cls-5" d="M219.2,155.55c3.17-60.58,66.87-43.54,66.87-43.54-14,63.76-66.87,43.54-66.87,43.54Z"/>
  <path class="cls-5" d="M266.51,259.85c-3.97,0-17.65-.82-28.01-10.63-5.16-4.89-11.3-13.83-11.3-28.71v-40.93c0-7.6,6.17-13.77,13.78-13.77s13.78,6.17,13.78,13.77v40.93c0,6.16,2.03,8.08,2.7,8.71,2.92,2.77,8.46,3.03,9.39,3.08l84.55-.02c7.61,0,13.78,6.17,13.78,13.77s-6.17,13.77-13.78,13.77h-83.81c-.13,0-.5.03-1.07.03Z"/>
  <path class="cls-3" d="M371.6,266.36c-14.63,0-26.53-11.9-26.53-26.53s11.9-26.53,26.53-26.53,26.54,11.9,26.54,26.53-11.9,26.53-26.54,26.53ZM371.6,232.15c-4.23,0-7.68,3.44-7.68,7.68s3.44,7.68,7.68,7.68,7.68-3.44,7.68-7.68-3.45-7.68-7.68-7.68Z"/>
  <path class="cls-3" d="M246.36,313.17c-14.24,0-25.82-11.58-25.82-25.82s11.59-25.81,25.82-25.81,25.82,11.58,25.82,25.81-11.58,25.82-25.82,25.82ZM246.36,280.39c-3.84,0-6.97,3.12-6.97,6.96s3.13,6.97,6.97,6.97,6.96-3.13,6.96-6.97-3.13-6.96-6.96-6.96Z"/>
  <path class="cls-3" d="M371.6,228.92c-7.61,0-13.78-6.17-13.78-13.77v-43.04c0-7.6,6.17-13.77,13.78-13.77s13.78,6.17,13.78,13.77v43.04c0,7.6-6.17,13.77-13.78,13.77Z"/>
  <path class="cls-3" d="M321.62,372.76h-55.25c-13.58,0-33.79-10.36-33.79-38.88v-21.53c0-7.6,6.17-13.77,13.78-13.77s13.78,6.17,13.78,13.77v21.53c0,7.34,2.17,11.05,6.64,11.34h27.3v-199.83c0-7.6,6.17-13.77,13.78-13.77s13.78,6.17,13.78,13.77v227.37Z"/>
  <path class="cls-5" d="M371.6,349.78c-7.61,0-13.78-6.17-13.78-13.77v-51.73c0-7.6,6.17-13.77,13.78-13.77s13.78,6.17,13.78,13.77v51.73c0,7.6-6.17,13.77-13.78,13.77Z"/>
  <path class="cls-5" d="M275.83,481.89c-78.54,0-149.07-43.72-184.06-114.08l-22.62-45.48,39.64,31.77c3.29,2.61,82.2,63.61,186.35,7.41,79.18-42.74,127.52-25.4,148.61-12.06,9.93-22.89,15.13-47.86,15.13-72.99,0-100.94-82.12-183.06-183.06-183.06s-183.06,82.12-183.06,183.06v2.42c-.04,3.77-.05,5.19.74,8.52,1.42,6.01-2.31,12.04-8.32,13.46-6.03,1.38-12.05-2.31-13.47-8.32-1.4-5.95-1.38-9.43-1.34-13.83v-2.26c0-113.28,92.17-205.45,205.45-205.45s205.45,92.17,205.45,205.45c0,33.28-8.14,66.33-23.54,95.58l-7.47,14.17-10.74-11.88c-1.6-1.69-41.85-42.74-133.75,6.88-71.08,38.37-133.03,27.07-171.09,11.98,34.29,41.66,85.46,66.33,141.14,66.33,52.43,0,101.47-22,136.21-60.74-13.13-8.05-43.07-18.04-89.02,13.89-61.45,42.75-118.51,26.98-120.92,26.27-5.94-1.71-9.37-7.92-7.65-13.85,1.71-5.95,7.93-9.38,13.85-7.65,1.97.55,49.57,13.27,101.93-23.14,79.28-55.14,125.62-5.04,126.08-4.53l6.3,7.03-5.87,7.39c-39.25,49.39-97.9,77.71-160.92,77.71Z"/>
</svg>